<svg xmlns="http://www.w3.org/2000/svg" viewBox="0 0 120 120" fill="none">
  <circle cx="60" cy="60" r="56" fill="#0668E1" opacity="0.08"/>
  <defs>
    <linearGradient id="ll1" x1="30" y1="30" x2="90" y2="90" gradientUnits="userSpaceOnUse">
      <stop offset="0" stop-color="#0668E1"/>
      <stop offset="1" stop-color="#0088FF"/>
    </linearGradient>
  </defs>
  <path d="M60 22c-21 0-38 17-38 38s17 38 38 38 38-17 38-38-17-38-38-38z" fill="url(#ll1)"/>
  <path d="M60 34c-4 0-7 2-9 5l-4 8-2 10v12l4 6h2l1-4 2 4h2l1-4 2 4h2l1-4 2 4h2l4-6V57l-2-10-4-8c-2-3-5-5-9-5h4z" fill="white" opacity="0.95"/>
  <circle cx="54" cy="52" r="2.5" fill="#0668E1"/>
  <circle cx="66" cy="52" r="2.5" fill="#0668E1"/>
  <path d="M55 60c0 0 2 4 5 4s5-4 5-4" stroke="#0668E1" stroke-width="1.5" stroke-linecap="round" fill="none"/>
</svg>
