<svg xmlns="http://www.w3.org/2000/svg" viewBox="0 0 120 120" fill="none">
  <circle cx="60" cy="60" r="56" fill="#10A37F" opacity="0.1"/>
  <path d="M92.5 52.8c1.7-5.2 1-10.9-2-15.4A19.5 19.5 0 0 0 69.4 28a19.5 19.5 0 0 0-18.7 5 19.5 19.5 0 0 0-14.8 7.2 19.5 19.5 0 0 0-2.4 18.6A19.5 19.5 0 0 0 27 73.2a19.5 19.5 0 0 0 21 9.4 19.5 19.5 0 0 0 14.8 6.5 19.5 19.5 0 0 0 18.6-13.5 19.5 19.5 0 0 0 14.8-7.2A19.5 19.5 0 0 0 92.5 52.8zM62.8 85c-3.5 0-6.8-1.2-9.5-3.3l.4-.3 15.8-9.1a2.6 2.6 0 0 0 1.3-2.2V50.4l6.7 3.8v18.3A15.5 15.5 0 0 1 62.8 85zM33 71.5a15.3 15.3 0 0 1-1.8-10.4l.4.3L47.4 70a2.6 2.6 0 0 0 2.6 0l19.3-11.1v7.7l-16 9.2A15.5 15.5 0 0 1 33 71.5zM29.6 44a15.3 15.3 0 0 1 8-6.8v18.7a2.6 2.6 0 0 0 1.3 2.2l19.3 11.1-6.7 3.8-16-9.2A15.5 15.5 0 0 1 29.6 44zm50.8 11.8L61.1 44.7l6.7-3.8 16 9.2a15.5 15.5 0 0 1-2.4 27.7V59a2.6 2.6 0 0 0-1-2.2zm6.6-10.4-.4-.3L70.8 36a2.6 2.6 0 0 0-2.6 0L48.9 47.1v-7.7l16-9.2a15.5 15.5 0 0 1 22.1 16.2zM45.4 55.6l-6.7-3.9a.3.3 0 0 1 0-.1V33.3a15.5 15.5 0 0 1 25.4-11.8l-.4.3-15.8 9.1a2.6 2.6 0 0 0-1.3 2.2l-.1 22.5zm3.6-7.9L60 41.5l10.9 6.3v12.5L60 66.5l-10.9-6.3V47.7z" fill="#10A37F"/>
</svg>
