<svg xmlns="http://www.w3.org/2000/svg" viewBox="0 0 256 256">
  <rect width="256" height="256" rx="20" fill="#1a1a1a"/>
  <path fill="#fff" d="M150.518 200.475v27.62c4.492 2.302 9.805 4.028 15.938 5.179 6.133 1.151 12.597 1.726 19.393 1.726 6.622 0 12.914-.633 18.874-1.899 5.96-1.266 11.187-3.352 15.678-6.259 4.492-2.906 8.048-6.796 10.669-11.669 2.621-4.873 3.931-10.93 3.931-18.171 0-5.179-.867-9.632-2.601-13.36-1.734-3.727-4.139-7.052-7.214-9.975-3.075-2.923-6.68-5.468-10.814-7.635-4.134-2.167-8.588-4.277-13.36-6.332-3.497-1.497-6.68-2.94-9.549-4.334-2.869-1.393-5.323-2.826-7.365-4.297-2.041-1.471-3.631-3.075-4.768-4.812-1.137-1.737-1.705-3.727-1.705-5.972 0-2.072.501-3.932 1.502-5.582 1.001-1.65 2.401-3.061 4.199-4.233 1.798-1.172 3.931-2.072 6.399-2.697 2.467-.626 5.179-.939 8.135-.939 2.072 0 4.277.184 6.614.552 2.338.368 4.676.939 7.013 1.711 2.338.772 4.559 1.737 6.663 2.894 2.105 1.157 3.998 2.497 5.681 4.019V112.51c-4.013-1.604-8.357-2.786-13.03-3.546-4.674-.76-10.02-1.14-16.039-1.14-6.536 0-12.718.672-18.546 2.016-5.827 1.345-10.959 3.455-15.394 6.332-4.435 2.877-7.955 6.614-10.559 11.211-2.604 4.597-3.906 10.173-3.906 16.726 0 8.511 2.467 15.62 7.401 21.328 4.934 5.708 12.33 10.522 22.188 14.443 3.931 1.584 7.587 3.108 10.969 4.572 3.382 1.464 6.326 2.999 8.832 4.605 2.506 1.607 4.478 3.395 5.916 5.366 1.438 1.971 2.157 4.257 2.157 6.858 0 1.899-.46 3.667-1.381 5.303-.921 1.636-2.301 3.065-4.14 4.285-1.838 1.22-4.113 2.176-6.823 2.868-2.711.692-5.848 1.038-9.413 1.038-6.015 0-12.084-1.058-18.206-3.174-6.122-2.116-11.728-5.303-16.818-9.56zM89.54 137.084h32.024V113H36v24.084h31.858v85.916h21.682v-85.916z"/>
</svg>
